<svg xmlns="http://www.w3.org/2000/svg" viewBox="0 0 360.07 141.85"><defs><style>.cls-1{fill:#60bfbf;}.cls-2{fill:#cc3e33;}</style></defs><g id="Layer_2" data-name="Layer 2"><g id="Layer_4" data-name="Layer 4"><path class="cls-1" d="M148.3,24a.84.84,0,0,1,.15.5.7.7,0,0,1-.24.52.76.76,0,0,1-.56.24h-9.28a1.59,1.59,0,0,1-1.3-.58l-6.26-7.74v7.34a.94.94,0,0,1-.29.69,1,1,0,0,1-.69.29h-7.41a1,1,0,0,1-.69-.29.94.94,0,0,1-.28-.69V1a1,1,0,0,1,1-1h7.41a1,1,0,0,1,.69.28,1,1,0,0,1,.29.69V7.78L136.49.65A1.71,1.71,0,0,1,137.83,0h8.67a.75.75,0,0,1,.56.23.73.73,0,0,1,.23.54.78.78,0,0,1-.18.52l-8.53,10.41Z"/><path class="cls-1" d="M157.23,25.24h-6.81a.74.74,0,0,1-.55-.24.63.63,0,0,1-.24-.45.89.89,0,0,1,0-.32l7.85-23A1.5,1.5,0,0,1,159.14,0h10a1.51,1.51,0,0,1,1.62,1.18l7.84,23a.89.89,0,0,1,0,.32.66.66,0,0,1-.23.45.77.77,0,0,1-.56.24h-6.81A1.65,1.65,0,0,1,169.43,24l-.9-2.52h-8.78l-.9,2.52A1.65,1.65,0,0,1,157.23,25.24Zm9.47-10.77L164.14,7l-2.56,7.49Z"/><path class="cls-1" d="M209.5,24a.84.84,0,0,1,.14.5.69.69,0,0,1-.23.52.76.76,0,0,1-.56.24h-9.29a1.58,1.58,0,0,1-1.29-.58L192,16.92v7.34a.94.94,0,0,1-.28.69,1,1,0,0,1-.69.29h-7.41a1,1,0,0,1-1-1V1a1,1,0,0,1,.29-.69.94.94,0,0,1,.69-.28H191a1,1,0,0,1,1,1V7.78L197.69.65A1.71,1.71,0,0,1,199,0h8.68a.75.75,0,0,1,.56.23.78.78,0,0,1,.23.54.78.78,0,0,1-.18.52l-8.53,10.41Z"/><path class="cls-1" d="M238.62,10.5v4.28a9.81,9.81,0,0,1-1.8,6,9.65,9.65,0,0,1-4.71,3.44,20.9,20.9,0,0,1-6.88,1,20.8,20.8,0,0,1-6.87-1,9.63,9.63,0,0,1-4.72-3.44,9.94,9.94,0,0,1-1.8-6.1V10.57c0-3.54,1.24-6.18,3.73-7.94a19.07,19.07,0,0,1,19.33,0Q238.62,5.27,238.62,10.5Zm-17.06-.59v5.45a2.52,2.52,0,0,0,1,2.14,4.33,4.33,0,0,0,2.68.75,4.27,4.27,0,0,0,2.68-.76,2.58,2.58,0,0,0,1-2.16V10a2.57,2.57,0,0,0-1-2.16A4.27,4.27,0,0,0,225.23,7a4.33,4.33,0,0,0-2.68.75A2.52,2.52,0,0,0,221.56,9.91Z"/><path class="cls-2" d="M71.63,82.86a1.25,1.25,0,0,1,.2.7,1,1,0,0,1-.33.72,1,1,0,0,1-.77.33H57.8a2.19,2.19,0,0,1-1.8-.8L47.28,73V83.26a1.37,1.37,0,0,1-1.35,1.35H35.61a1.37,1.37,0,0,1-1.35-1.35V50.9a1.31,1.31,0,0,1,.4-1,1.32,1.32,0,0,1,1-.4H45.93a1.32,1.32,0,0,1,1,.4,1.31,1.31,0,0,1,.4,1v9.41L55.2,50.4a2.37,2.37,0,0,1,1.85-.86H69.12a1.05,1.05,0,0,1,.78.33,1,1,0,0,1,.33.75,1.15,1.15,0,0,1-.25.73L58.1,65.82Z"/><path class="cls-1" d="M85.87,84.61H76.4a1.07,1.07,0,0,1-.78-.33.92.92,0,0,1-.32-.62,1.32,1.32,0,0,1,0-.45l10.92-32a2.09,2.09,0,0,1,2.25-1.66h13.93a2.09,2.09,0,0,1,2.25,1.66l10.93,32a1.64,1.64,0,0,1,.05.45.89.89,0,0,1-.33.62,1.07,1.07,0,0,1-.78.33H105.1a2.31,2.31,0,0,1-2.25-1.7L101.6,79.4H89.37l-1.25,3.51A2.3,2.3,0,0,1,85.87,84.61ZM99,69.63,95.49,59.21,91.93,69.63Z"/><path class="cls-1" d="M131.49,63.29v7.58a3.51,3.51,0,0,0,1.38,3,5.86,5.86,0,0,0,3.61,1,6.07,6.07,0,0,0,3.23-.66,5.12,5.12,0,0,0,1.68-1.94A2,2,0,0,1,143.17,71H154a1.07,1.07,0,0,1,.77.32,1,1,0,0,1,.33.76q0,4.59-4.41,8.38a16.72,16.72,0,0,1-5.86,3,28.73,28.73,0,0,1-8.62,1.16,26.29,26.29,0,0,1-9-1.49,14.26,14.26,0,0,1-6.64-4.88A13.49,13.49,0,0,1,118,70V64.19a13.59,13.59,0,0,1,2.55-8.35q4.82-6.35,16.08-6.35a27.25,27.25,0,0,1,8.22,1.16,16.72,16.72,0,0,1,5.86,3q4.41,3.8,4.41,8.38a1,1,0,0,1-.33.76,1,1,0,0,1-.77.33H143.17a2,2,0,0,1-1.78-1.28,5,5,0,0,0-1.68-1.94,6,6,0,0,0-3.23-.67,5.86,5.86,0,0,0-3.61,1A3.53,3.53,0,0,0,131.49,63.29Z"/><path class="cls-1" d="M185,49.54h10.32a1.37,1.37,0,0,1,1.36,1.36V83.26a1.32,1.32,0,0,1-.4.95,1.31,1.31,0,0,1-1,.4H185a1.3,1.3,0,0,1-.95-.4,1.32,1.32,0,0,1-.4-.95V72.59h-10V83.26a1.37,1.37,0,0,1-1.35,1.35H162a1.31,1.31,0,0,1-.95-.38,1.25,1.25,0,0,1-.4-1V50.9a1.31,1.31,0,0,1,.4-1,1.32,1.32,0,0,1,.95-.4h10.32a1.32,1.32,0,0,1,1,.4,1.31,1.31,0,0,1,.4,1V61.17h10V50.9A1.37,1.37,0,0,1,185,49.54Z"/><path class="cls-1" d="M237.14,59.81h-9.06V74.34h9.06a1.31,1.31,0,0,1,1,.4,1.34,1.34,0,0,1,.4,1v7.57a1.32,1.32,0,0,1-.4.95,1.31,1.31,0,0,1-1,.4H205.38a1.3,1.3,0,0,1-.95-.4,1.29,1.29,0,0,1-.4-.95V75.69a1.37,1.37,0,0,1,1.35-1.35h9.17V59.81h-9.17a1.3,1.3,0,0,1-.95-.4,1.27,1.27,0,0,1-.4-.95V50.9a1.31,1.31,0,0,1,.4-1,1.34,1.34,0,0,1,.95-.4h31.76a1.37,1.37,0,0,1,1.36,1.36v7.56a1.37,1.37,0,0,1-1.36,1.35Z"/><path class="cls-1" d="M270.21,49.54h9.31a1.37,1.37,0,0,1,1.36,1.36V83.26a1.32,1.32,0,0,1-.4.95,1.31,1.31,0,0,1-1,.4h-8.06a2.45,2.45,0,0,1-2-1L258.53,69.63V83.26a1.29,1.29,0,0,1-.4.95,1.27,1.27,0,0,1-.95.4h-9.32a1.3,1.3,0,0,1-1-.4,1.29,1.29,0,0,1-.4-.95V50.9a1.31,1.31,0,0,1,.4-1,1.34,1.34,0,0,1,1-.4H256a2.33,2.33,0,0,1,2,1l10.92,15.07V50.9a1.37,1.37,0,0,1,1.36-1.36Z"/><path class="cls-1" d="M309.93,63h14.53a1.37,1.37,0,0,1,1.35,1.35v5.31q0,7.62-5.18,11.3t-13.7,3.68q-8.52,0-13.71-3.59T288,70V64.19a14.31,14.31,0,0,1,1.48-6.64,12,12,0,0,1,4.13-4.64q5.21-3.42,13.28-3.42a28.48,28.48,0,0,1,7.33.89,17.69,17.69,0,0,1,5.31,2.22A18.28,18.28,0,0,1,323,55.46c1.63,1.8,2.45,3.38,2.45,4.76a1,1,0,0,1-.32.75,1.09,1.09,0,0,1-.78.31H313a2.07,2.07,0,0,1-1.46-.44,5.66,5.66,0,0,0-4.23-1.58,7.6,7.6,0,0,0-4.21,1,2.94,2.94,0,0,0-1.52,2.55v8.06a3.43,3.43,0,0,0,1.5,3,7.23,7.23,0,0,0,4.23,1.06,7.06,7.06,0,0,0,4.21-1.08A3.27,3.27,0,0,0,313,71.28h-3.11a1.29,1.29,0,0,1-.95-.4,1.27,1.27,0,0,1-.4-.95V64.37A1.37,1.37,0,0,1,309.93,63Z"/><path class="cls-1" d="M1,116.62h22.9a.9.9,0,0,1,.68.29.94.94,0,0,1,.29.68v5.47a1,1,0,0,1-.29.69.93.93,0,0,1-.68.28H9.72v2.31H21.53a.9.9,0,0,1,.68.29.94.94,0,0,1,.29.68v5.44a1,1,0,0,1-1,1H9.72v7.12a1,1,0,0,1-1,1H1a.94.94,0,0,1-.68-.29.94.94,0,0,1-.29-.69V117.59a.94.94,0,0,1,.29-.68A.9.9,0,0,1,1,116.62Z"/><path class="cls-1" d="M51.89,139.26q-3.54,2.6-9.59,2.59t-9.59-2.59q-3.55-2.59-3.55-8.1V117.58a.94.94,0,0,1,.29-.68.93.93,0,0,1,.68-.28h7.53a.93.93,0,0,1,.68.28.92.92,0,0,1,.29.67v14.08a2.68,2.68,0,0,0,1,2.23,4.27,4.27,0,0,0,2.68.77,4.27,4.27,0,0,0,2.68-.77,2.68,2.68,0,0,0,1-2.23V117.57a.92.92,0,0,1,.29-.67.93.93,0,0,1,.68-.28h7.53a.93.93,0,0,1,.68.28.94.94,0,0,1,.29.68v13.58Q55.44,136.67,51.89,139.26Z"/><path class="cls-1" d="M77.47,116.62h6.7a.9.9,0,0,1,.68.29.94.94,0,0,1,.29.68v23.25a1,1,0,0,1-1,1h-5.8a1.75,1.75,0,0,1-1.44-.76l-7.85-10v9.79a.94.94,0,0,1-.28.69,1,1,0,0,1-.69.29H61.42a1,1,0,0,1-1-1V117.59a.94.94,0,0,1,.29-.68.91.91,0,0,1,.69-.29h5.83a1.68,1.68,0,0,1,1.4.72l7.85,10.83V117.59a.94.94,0,0,1,.29-.68A.9.9,0,0,1,77.47,116.62Z"/><path class="cls-1" d="M118.37,140.56a.92.92,0,0,1,.14.5.73.73,0,0,1-.23.52.76.76,0,0,1-.56.24h-9.29a1.58,1.58,0,0,1-1.3-.58l-6.26-7.74v7.34a.91.91,0,0,1-.29.69.94.94,0,0,1-.68.29H92.48a1,1,0,0,1-1-1V117.59a.94.94,0,0,1,.29-.68.9.9,0,0,1,.68-.29H99.9a1,1,0,0,1,1,1v6.77l5.69-7.13a1.69,1.69,0,0,1,1.33-.61h8.68a.76.76,0,0,1,.55.23.75.75,0,0,1,.24.54.77.77,0,0,1-.18.52l-8.53,10.41Z"/><path class="cls-1" d="M130.79,126.49v5.45a2.51,2.51,0,0,0,1,2.14,4.17,4.17,0,0,0,2.59.75,4.4,4.4,0,0,0,2.32-.47,3.73,3.73,0,0,0,1.21-1.4,1.45,1.45,0,0,1,1.27-.92H147a.79.79,0,0,1,.56.23.74.74,0,0,1,.23.55,7.88,7.88,0,0,1-3.16,6,12,12,0,0,1-4.22,2.18,20.39,20.39,0,0,1-6.19.83,18.7,18.7,0,0,1-6.5-1.07,10.23,10.23,0,0,1-4.77-3.51,9.67,9.67,0,0,1-1.83-6v-4.14a9.78,9.78,0,0,1,1.83-6q3.46-4.56,11.56-4.56a19.65,19.65,0,0,1,5.9.83,12.21,12.21,0,0,1,4.22,2.18,7.9,7.9,0,0,1,3.16,6,.71.71,0,0,1-.23.55.75.75,0,0,1-.56.23h-7.78a1.43,1.43,0,0,1-1.27-.92,3.78,3.78,0,0,0-1.21-1.39,4.29,4.29,0,0,0-2.32-.48,4.17,4.17,0,0,0-2.59.75A2.52,2.52,0,0,0,130.79,126.49Z"/><path class="cls-1" d="M176.11,124h-6.52v10.44h6.52a1,1,0,0,1,1,1v5.43a.91.91,0,0,1-.29.69.94.94,0,0,1-.68.29H153.29a1,1,0,0,1-1-1v-5.43a.94.94,0,0,1,.29-.68.91.91,0,0,1,.69-.29h6.58V124h-6.58a1,1,0,0,1-1-1v-5.44a.94.94,0,0,1,.29-.68.91.91,0,0,1,.69-.29h22.82a1,1,0,0,1,1,1V123a.9.9,0,0,1-.29.68A.94.94,0,0,1,176.11,124Z"/><path class="cls-1" d="M208.69,127.08v4.28a9.86,9.86,0,0,1-1.8,6,9.75,9.75,0,0,1-4.72,3.44,23.9,23.9,0,0,1-13.75,0,9.77,9.77,0,0,1-4.71-3.44,10,10,0,0,1-1.8-6.11v-4.14c0-3.54,1.24-6.18,3.72-7.94a19.07,19.07,0,0,1,19.33,0Q208.7,121.85,208.69,127.08Zm-17.06-.59v5.45a2.51,2.51,0,0,0,1,2.14,4.33,4.33,0,0,0,2.68.75,4.27,4.27,0,0,0,2.68-.76,2.57,2.57,0,0,0,1-2.16v-5.38a2.57,2.57,0,0,0-1-2.16,4.27,4.27,0,0,0-2.68-.77,4.33,4.33,0,0,0-2.68.75A2.52,2.52,0,0,0,191.63,126.49Z"/><path class="cls-1" d="M230.47,116.62h6.7a.9.9,0,0,1,.68.29.94.94,0,0,1,.29.68v23.25a1,1,0,0,1-1,1h-5.8a1.72,1.72,0,0,1-1.44-.76l-7.85-10v9.79a.91.91,0,0,1-.29.69.94.94,0,0,1-.68.29h-6.7a1,1,0,0,1-1-1V117.59a.94.94,0,0,1,.29-.68.9.9,0,0,1,.68-.29h5.84a1.68,1.68,0,0,1,1.4.72l7.85,10.83V117.59a1,1,0,0,1,1-1Z"/><path class="cls-1" d="M267.91,124H261.4v10.44h6.51a1,1,0,0,1,1,1v5.43a.94.94,0,0,1-.28.69,1,1,0,0,1-.69.29H245.09a1,1,0,0,1-1-1v-5.43a.94.94,0,0,1,.29-.68.91.91,0,0,1,.69-.29h6.58V124h-6.58a1,1,0,0,1-1-1v-5.44a.94.94,0,0,1,.29-.68.91.91,0,0,1,.69-.29h22.82a1,1,0,0,1,1,1V123a.93.93,0,0,1-.28.68A1,1,0,0,1,267.91,124Z"/><path class="cls-1" d="M297.48,128.45a6.19,6.19,0,0,1,2.51,5.37c0,2.39-1.22,4.33-3.64,5.81s-5.64,2.22-9.65,2.22-7.12-.73-9.34-2.19-3.33-3.26-3.33-5.4c0-.53.28-.79.83-.79h7.38a1.72,1.72,0,0,1,1.22.44,5.14,5.14,0,0,0,3.49.92c2.28,0,3.42-.33,3.42-1,0-.42-.36-.75-1.08-1a24.44,24.44,0,0,0-4.28-.71q-10.18-1.19-10.19-7.54a6.69,6.69,0,0,1,3.28-5.79,15.44,15.44,0,0,1,8.76-2.21,15.11,15.11,0,0,1,8.88,2.38q3.38,2.37,3.38,5a.75.75,0,0,1-.23.57.88.88,0,0,1-.63.22h-7.74a1.66,1.66,0,0,1-1.12-.41,3.85,3.85,0,0,0-2.59-.75c-1.61,0-2.41.33-2.41,1q0,.51.93.81a24,24,0,0,0,3.75.61C293,126.44,295.82,127.26,297.48,128.45Zm-7-17.56h2.91a.51.51,0,0,1,.58.58.56.56,0,0,1-.29.5l-3,2.52a3.09,3.09,0,0,1-1.69.69h-4a3.06,3.06,0,0,1-1.69-.69l-3-2.52a.56.56,0,0,1-.29-.5.51.51,0,0,1,.58-.58h2.91a4.78,4.78,0,0,1,1.44.26l2.05.79,2.06-.79A4.68,4.68,0,0,1,290.45,110.89Z"/><path class="cls-1" d="M315,134.8h14.36a1,1,0,0,1,1,1v5.07a.94.94,0,0,1-.28.69,1,1,0,0,1-.69.29H306.61a.94.94,0,0,1-.68-.29.91.91,0,0,1-.29-.69V117.59a1,1,0,0,1,1-1H329a1,1,0,0,1,1,1v5.08a.93.93,0,0,1-.28.68,1,1,0,0,1-.69.29H315v2.27h12a1,1,0,0,1,1,1v4.68a.93.93,0,0,1-.28.68,1,1,0,0,1-.69.29H315Z"/><path class="cls-1" d="M343.29,117.33a21.5,21.5,0,0,1,11.11,0,8.7,8.7,0,0,1,3.51,1.8,5.84,5.84,0,0,1,2.16,4.14,5.17,5.17,0,0,1-.74,2.67,7.55,7.55,0,0,1-1.65,2l-2.06,1.72a8.69,8.69,0,0,0-1.54,1.55c-.28.4-.45.65-.53.74a1.14,1.14,0,0,1-.86.39h-8.42a.67.67,0,0,1-.47-.19.53.53,0,0,1-.22-.4.83.83,0,0,1,0-.31,5.53,5.53,0,0,1,1.4-2.13,12.09,12.09,0,0,1,2.09-1.71c1.8-1.14,2.7-2,2.7-2.65,0-.86-.53-1.29-1.58-1.29a2.37,2.37,0,0,0-1.37.33,1.27,1.27,0,0,0-.56.75,1.41,1.41,0,0,1-.45.75,1.45,1.45,0,0,1-1,.33h-7.41a.78.78,0,0,1-.65-.32,1.19,1.19,0,0,1-.25-.75v0a7,7,0,0,1,2.88-5.39A10.84,10.84,0,0,1,343.29,117.33Zm1.52,16.46h7.3a1,1,0,0,1,.69.29.94.94,0,0,1,.29.68v6.08a.94.94,0,0,1-.29.69,1,1,0,0,1-.69.29h-7.3a1,1,0,0,1-1-1v-6.08a1,1,0,0,1,1-1Z"/></g></g></svg>