<svg xmlns="http://www.w3.org/2000/svg" viewBox="0 0 240.6 172.53"><defs><style>.cls-1{fill:#cc3e33;}.cls-2{fill:#60bfbf;}</style></defs><g id="Layer_2" data-name="Layer 2"><g id="Layer_4" data-name="Layer 4"><path class="cls-1" d="M30.84,171.05a1,1,0,0,1,.17.58.79.79,0,0,1-.27.59.89.89,0,0,1-.64.27H19.43a1.82,1.82,0,0,1-1.49-.66l-7.19-8.89v8.44a1.13,1.13,0,0,1-1.12,1.11H1.12a1.07,1.07,0,0,1-.79-.33,1.07,1.07,0,0,1-.33-.78V144.67a1.07,1.07,0,0,1,.33-.78,1.07,1.07,0,0,1,.79-.33H9.63a1.13,1.13,0,0,1,1.12,1.11v7.77l6.53-8.18a1.94,1.94,0,0,1,1.53-.7h10a.91.91,0,0,1,.91.88.92.92,0,0,1-.2.6l-9.8,12Z"/><path class="cls-2" d="M42.59,172.49H34.78a.85.85,0,0,1-.64-.27.74.74,0,0,1-.27-.51,1.14,1.14,0,0,1,0-.37l9-26.42a1.73,1.73,0,0,1,1.86-1.36H56.27a1.72,1.72,0,0,1,1.86,1.36l9,26.42a1.52,1.52,0,0,1,0,.37.74.74,0,0,1-.27.51.87.87,0,0,1-.64.27H58.46a1.91,1.91,0,0,1-1.86-1.4l-1-2.9H45.48l-1,2.9A1.91,1.91,0,0,1,42.59,172.49Zm10.87-12.36-2.93-8.6-2.94,8.6Z"/><path class="cls-2" d="M80.24,154.9v6.25a2.89,2.89,0,0,0,1.14,2.46,4.76,4.76,0,0,0,3,.86,5,5,0,0,0,2.67-.54,4.35,4.35,0,0,0,1.39-1.61,1.66,1.66,0,0,1,1.46-1H98.8a.9.9,0,0,1,.64.26.86.86,0,0,1,.27.63q0,3.78-3.64,6.92a13.87,13.87,0,0,1-4.83,2.5,23.54,23.54,0,0,1-7.11.95,21.92,21.92,0,0,1-7.47-1.22,11.72,11.72,0,0,1-5.47-4,11,11,0,0,1-2.11-6.87v-4.75a11.17,11.17,0,0,1,2.11-6.9q4-5.24,13.27-5.24a22.3,22.3,0,0,1,6.78,1,13.87,13.87,0,0,1,4.83,2.5q3.65,3.14,3.64,6.91a.87.87,0,0,1-.27.64.9.9,0,0,1-.64.26H89.87a1.65,1.65,0,0,1-1.46-1.06,4.4,4.4,0,0,0-1.39-1.6,5,5,0,0,0-2.67-.55,4.82,4.82,0,0,0-3,.86A2.92,2.92,0,0,0,80.24,154.9Z"/><path class="cls-2" d="M124.43,143.56H133a1.15,1.15,0,0,1,1.12,1.11v26.71a1.15,1.15,0,0,1-1.12,1.11h-8.52a1.13,1.13,0,0,1-1.11-1.11v-8.81h-8.27v8.81a1.13,1.13,0,0,1-1.12,1.11h-8.51a1.09,1.09,0,0,1-.79-.31,1,1,0,0,1-.33-.8V144.67a1.13,1.13,0,0,1,1.12-1.11h8.51a1.13,1.13,0,0,1,1.12,1.11v8.48h8.27v-8.48a1.13,1.13,0,0,1,1.11-1.11Z"/><path class="cls-2" d="M167.43,152h-7.49v12h7.49a1.13,1.13,0,0,1,1.11,1.11v6.25a1.13,1.13,0,0,1-1.11,1.11H141.22a1.13,1.13,0,0,1-1.12-1.11v-6.25a1.13,1.13,0,0,1,1.12-1.11h7.56V152h-7.56a1.13,1.13,0,0,1-1.12-1.12v-6.24a1.13,1.13,0,0,1,1.12-1.11h26.21a1.13,1.13,0,0,1,1.11,1.11v6.24a1.13,1.13,0,0,1-1.11,1.12Z"/><path class="cls-2" d="M194.71,143.56h7.69a1.11,1.11,0,0,1,.79.33,1.07,1.07,0,0,1,.33.78v26.71a1.07,1.07,0,0,1-.33.78,1.11,1.11,0,0,1-.79.33h-6.66a2,2,0,0,1-1.65-.86l-9-11.5v11.25a1.13,1.13,0,0,1-1.12,1.11h-7.69a1.13,1.13,0,0,1-1.11-1.11V144.67a1.13,1.13,0,0,1,1.11-1.11H183a1.92,1.92,0,0,1,1.61.82l9,12.45V144.67a1,1,0,0,1,.34-.78A1.07,1.07,0,0,1,194.71,143.56Z"/><path class="cls-2" d="M227.49,154.68h12a1.09,1.09,0,0,1,.79.33,1.07,1.07,0,0,1,.33.78v4.38q0,6.29-4.28,9.33t-11.31,3q-7,0-11.3-3t-4.28-9.17v-4.75a11.81,11.81,0,0,1,1.22-5.49,9.9,9.9,0,0,1,3.41-3.82A19.51,19.51,0,0,1,225,143.51a23.4,23.4,0,0,1,6.06.74,13.6,13.6,0,0,1,7.17,4.19c1.35,1.48,2,2.79,2,3.93a.8.8,0,0,1-.27.61.86.86,0,0,1-.64.26H230a1.61,1.61,0,0,1-1.2-.37,4.72,4.72,0,0,0-3.5-1.3,6.29,6.29,0,0,0-3.47.83,2.44,2.44,0,0,0-1.26,2.11v6.64a2.81,2.81,0,0,0,1.24,2.44,5.94,5.94,0,0,0,3.49.88,5.81,5.81,0,0,0,3.48-.89,2.68,2.68,0,0,0,1.26-2.08h-2.57a1.07,1.07,0,0,1-.78-.33,1.09,1.09,0,0,1-.33-.79v-4.59a1.13,1.13,0,0,1,1.11-1.11Z"/><path class="cls-1" d="M118.91,34.24a17.15,17.15,0,1,0-15.7-15.7A17.16,17.16,0,0,0,118.91,34.24Z"/><path class="cls-2" d="M78.08,17.93,120.3,51.55l42.21-33.62a3.57,3.57,0,0,1,5.8,2.79V50.13A3.58,3.58,0,0,1,167,52.91l-28,22.62h25.8a3.57,3.57,0,0,1,3.57,3.57v30.62a3.56,3.56,0,0,1-3.57,3.56H75.86a3.56,3.56,0,0,1-3.57-3.56V79.1a3.57,3.57,0,0,1,3.57-3.57h25.8l-28-22.62a3.58,3.58,0,0,1-1.33-2.78V20.72A3.57,3.57,0,0,1,78.08,17.93Z"/></g></g></svg>